<svg width="488" height="840" viewBox="0 0 488 840" fill="none" xmlns="http://www.w3.org/2000/svg">
<g clip-path="url(#clip0_28_306908)">
<mask id="mask0_28_306908" style="mask-type:luminance" maskUnits="userSpaceOnUse" x="0" y="0" width="928" height="840">
<path d="M928 0H0V840H928V0Z" fill="white"/>
</mask>
<g mask="url(#mask0_28_306908)">
<path d="M928 0H0V840H928V0Z" fill="#9BD4EE"/>
<mask id="mask1_28_306908" style="mask-type:luminance" maskUnits="userSpaceOnUse" x="102" y="29" width="195" height="185">
<path d="M296.664 29.1035H102.407V213.763H296.664V29.1035Z" fill="white"/>
</mask>
<g mask="url(#mask1_28_306908)">
<path d="M223.199 159.23C203.774 174.523 205.291 213.763 205.291 213.763H211.968C229.573 162.404 290.582 143.072 290.582 143.072C290.582 143.072 251.731 136.437 223.199 159.23Z" fill="#2780B9"/>
<path d="M204.393 31.9902L211.981 213.764H196.805L204.393 31.9902Z" fill="#1057ED"/>
<path d="M239.598 101.526C239.598 133.264 223.815 146.825 204.389 146.825C184.964 146.825 169.18 133.264 169.18 101.526C169.18 69.7877 204.389 31.9902 204.389 31.9902C204.389 31.9902 239.598 69.7877 239.598 101.526Z" fill="#012ED9"/>
<path d="M214.71 86.5237C259.632 113.357 229.28 151.443 203.783 151.443C178.287 151.443 157.647 126.63 157.647 95.7567C157.647 64.8839 182.84 40.0703 182.84 40.0703C182.84 40.0703 181.626 66.9037 214.71 86.5237Z" fill="#1667FC"/>
<path d="M194.371 86.5223C149.449 113.355 179.802 151.441 205.298 151.441C230.795 151.441 251.434 126.628 251.434 95.7553C251.434 64.8825 226.545 40.3574 226.545 40.3574C226.545 40.3574 227.456 66.9022 194.371 86.5223Z" fill="#339FFF"/>
<path d="M177.684 153.458C197.717 172.501 204.09 213.762 204.09 213.762H189.521C166.15 161.249 108.48 122.875 108.48 122.875C108.48 122.875 157.651 134.704 177.684 153.458Z" fill="#2780B9"/>
</g>
<path d="M200.804 445.514C187.291 456.152 188.346 483.449 188.346 483.449H192.992C205.238 447.722 247.679 434.274 247.679 434.274C247.679 434.274 220.652 429.657 200.804 445.514Z" fill="#2780B9"/>
<path d="M187.725 357L193.004 483.452H182.446L187.725 357Z" fill="#1057ED"/>
<path d="M212.218 405.373C212.218 427.452 201.238 436.885 187.725 436.885C174.211 436.885 163.231 427.452 163.231 405.373C163.231 383.294 187.725 357 187.725 357C187.725 357 212.218 383.294 212.218 405.373Z" fill="#012ED9"/>
<path d="M194.898 394.939C226.148 413.606 205.033 440.1 187.297 440.1C169.56 440.1 155.202 422.839 155.202 401.362C155.202 379.885 172.727 362.623 172.727 362.623C172.727 362.623 171.883 381.29 194.898 394.939Z" fill="#1667FC"/>
<path d="M180.75 394.933C149.5 413.6 170.615 440.095 188.352 440.095C206.088 440.095 220.446 422.833 220.446 401.356C220.446 379.879 203.132 362.818 203.132 362.818C203.132 362.818 203.766 381.284 180.75 394.933Z" fill="#339FFF"/>
<path d="M169.143 441.501C183.079 454.748 187.513 483.45 187.513 483.45H177.378C161.119 446.92 121.001 420.225 121.001 420.225C121.001 420.225 155.207 428.454 169.143 441.501Z" fill="#2780B9"/>
<path d="M321.57 767.942C308.056 778.58 309.112 805.877 309.112 805.877H313.757C326.004 770.149 368.445 756.701 368.445 756.701C368.445 756.701 341.418 752.085 321.57 767.942Z" fill="#2780B9"/>
<path d="M308.491 679.426L313.769 805.877H303.212L308.491 679.426Z" fill="#1057ED"/>
<path d="M332.982 727.799C332.982 749.877 322.002 759.311 308.488 759.311C294.975 759.311 283.995 749.877 283.995 727.799C283.995 705.72 308.488 679.426 308.488 679.426C308.488 679.426 332.982 705.72 332.982 727.799Z" fill="#012ED9"/>
<path d="M315.664 717.366C346.914 736.033 325.799 762.527 308.062 762.527C290.326 762.527 275.968 745.266 275.968 723.789C275.968 702.312 293.493 685.051 293.493 685.051C293.493 685.051 292.649 703.717 315.664 717.366Z" fill="#1667FC"/>
<path d="M301.516 717.361C270.266 736.027 291.381 762.522 309.117 762.522C326.854 762.522 341.212 745.26 341.212 723.784C341.212 702.307 323.898 685.246 323.898 685.246C323.898 685.246 324.531 703.712 301.516 717.361Z" fill="#339FFF"/>
<path d="M289.909 763.928C303.844 777.176 308.279 805.878 308.279 805.878H298.143C281.885 769.348 241.767 742.652 241.767 742.652C241.767 742.652 275.973 750.882 289.909 763.928Z" fill="#2780B9"/>
<path d="M14.2009 487.981C4.27693 495.793 5.05224 515.84 5.05224 515.84H8.46361C17.4572 489.603 48.6249 479.727 48.6249 479.727C48.6249 479.727 28.7768 476.337 14.2009 487.981Z" fill="#2780B9"/>
<path d="M4.59434 422.98L8.4709 515.843H0.717773L4.59434 422.98Z" fill="#1057ED"/>
<path d="M22.579 458.504C22.579 474.718 14.5158 481.646 4.59174 481.646C-5.33225 481.646 -13.3955 474.718 -13.3955 458.504C-13.3955 442.289 4.59174 422.98 4.59174 422.98C4.59174 422.98 22.579 442.289 22.579 458.504Z" fill="#012ED9"/>
<path d="M9.86365 450.839C32.8129 464.547 17.3067 484.005 4.28139 484.005C-8.74386 484.005 -19.2881 471.328 -19.2881 455.556C-19.2881 439.784 -6.41793 427.107 -6.41793 427.107C-6.41793 427.107 -7.03818 440.815 9.86365 450.839Z" fill="#1667FC"/>
<path d="M-0.526424 450.836C-23.4757 464.544 -7.96942 484.001 5.05584 484.001C18.0811 484.001 28.6253 471.324 28.6253 455.553C28.6253 439.781 15.9102 427.252 15.9102 427.252C15.9102 427.252 16.3754 440.812 -0.526424 450.836Z" fill="#339FFF"/>
<path d="M-9.05296 485.035C1.18117 494.764 4.43748 515.842 4.43748 515.842H-3.00551C-14.9453 489.015 -44.4072 469.41 -44.4072 469.41C-44.4072 469.41 -19.2871 475.454 -9.05296 485.035Z" fill="#2780B9"/>
<path d="M103.553 324.885C98.3794 328.957 98.7838 339.406 98.7838 339.406H100.563C105.25 325.729 121.497 320.581 121.497 320.581C121.497 320.581 111.151 318.814 103.553 324.885Z" fill="#2780B9"/>
<path d="M98.5451 291L100.566 339.407H96.5244L98.5451 291Z" fill="#1057ED"/>
<path d="M107.919 309.517C107.919 317.969 103.716 321.58 98.543 321.58C93.3699 321.58 89.167 317.969 89.167 309.517C89.167 301.065 98.543 291 98.543 291C98.543 291 107.919 301.065 107.919 309.517Z" fill="#012ED9"/>
<path d="M101.288 305.526C113.252 312.671 105.168 322.813 98.3784 322.813C91.5889 322.813 86.0928 316.206 86.0928 307.984C86.0928 299.762 92.801 293.154 92.801 293.154C92.801 293.154 92.4779 300.3 101.288 305.526Z" fill="#1667FC"/>
<path d="M95.874 305.52C83.9113 312.667 91.9941 322.809 98.7836 322.809C105.574 322.809 111.07 316.202 111.07 307.979C111.07 299.758 104.442 293.227 104.442 293.227C104.442 293.227 104.684 300.296 95.874 305.52Z" fill="#339FFF"/>
<path d="M91.4301 323.347C96.7658 328.419 98.4624 339.407 98.4624 339.407H94.5825C88.3589 325.423 73.001 315.203 73.001 315.203C73.001 315.203 86.0954 318.353 91.4301 323.347Z" fill="#2780B9"/>
<path d="M177.976 702.87C150.21 724.727 152.378 780.815 152.378 780.815H161.923C187.086 707.406 274.29 679.775 274.29 679.775C274.29 679.775 218.757 670.29 177.976 702.87Z" fill="#2780B9"/>
<path d="M151.103 521L161.948 780.819H140.257L151.103 521Z" fill="#1057ED"/>
<path d="M201.423 620.391C201.423 665.756 178.863 685.139 151.097 685.139C123.331 685.139 100.771 665.756 100.771 620.391C100.771 575.026 151.097 521 151.097 521C151.097 521 201.423 575.026 201.423 620.391Z" fill="#012ED9"/>
<path d="M165.843 598.951C230.052 637.305 186.668 691.743 150.225 691.743C113.782 691.743 84.2803 656.276 84.2803 612.148C84.2803 568.02 120.29 532.553 120.29 532.553C120.29 532.553 118.554 570.907 165.843 598.951Z" fill="#1667FC"/>
<path d="M136.774 598.941C72.5643 637.295 115.949 691.732 152.391 691.732C188.835 691.732 218.336 656.265 218.336 612.138C218.336 568.009 182.761 532.955 182.761 532.955C182.761 532.955 184.063 570.897 136.774 598.941Z" fill="#339FFF"/>
<path d="M112.917 694.625C141.551 721.845 150.662 780.819 150.662 780.819H129.837C96.4315 705.76 14.001 650.91 14.001 650.91C14.001 650.91 84.284 667.819 112.917 694.625Z" fill="#2780B9"/>
</g>
</g>
<defs>
<clipPath id="clip0_28_306908">
<rect width="488" height="840" fill="white"/>
</clipPath>
</defs>
</svg>
