<svg width="82" height="80" viewBox="0 0 82 80" fill="none" xmlns="http://www.w3.org/2000/svg">
<g id="Facebook ">
<g id="Vector">
<path d="M78.125 40.0002C78.125 19.7497 61.5036 3.3335 41 3.3335C20.4964 3.3335 3.875 19.7497 3.875 40.0002C3.875 58.3013 17.451 73.4707 35.1992 76.2214V50.5991H25.7729V40.0002H35.1992V31.922C35.1992 22.7325 40.7419 17.6564 49.2219 17.6564C53.2824 17.6564 57.5322 18.3726 57.5322 18.3726V27.396H52.851C48.2394 27.396 46.8008 30.2226 46.8008 33.1252V40.0002H57.0972L55.4512 50.5991H46.8008V76.2214C64.549 73.4707 78.125 58.3013 78.125 40.0002Z" fill="#1877F2"/>
<path d="M55.4512 50.5991L57.0972 40.0002H46.8008V33.1252C46.8008 30.2255 48.2394 27.396 52.851 27.396H57.5322V18.3726C57.5322 18.3726 53.2824 17.6564 49.2219 17.6564C40.7419 17.6564 35.1992 22.7325 35.1992 31.922V40.0002H25.7729V50.5991H35.1992V76.2214C39.043 76.8153 42.957 76.8153 46.8008 76.2214V50.5991H55.4512Z" fill="white"/>
</g>
</g>
</svg>
