<svg width="86" height="80" viewBox="0 0 86 80" fill="none" xmlns="http://www.w3.org/2000/svg">
<g id="Instagram ">
<g id="Vector">
<path d="M43.0229 9.94023C53.4381 9.94023 54.6715 9.98323 58.7676 10.1552C62.5744 10.3128 64.63 10.9148 66.0004 11.4164C67.8125 12.0756 69.122 12.8782 70.4772 14.1536C71.8476 15.4435 72.6851 16.6616 73.3855 18.367C73.9185 19.6569 74.558 21.6059 74.7255 25.1744C74.9082 29.0439 74.9539 30.2047 74.9539 39.993C74.9539 49.7956 74.9082 50.9565 74.7255 54.8116C74.558 58.3944 73.9185 60.3291 73.3855 61.619C72.6851 63.3244 71.8324 64.5569 70.4772 65.8324C69.1068 67.1222 67.8125 67.9104 66.0004 68.5696C64.63 69.0712 62.5591 69.6731 58.7676 69.8308C54.6563 70.0028 53.4229 70.0458 43.0229 70.0458C32.6076 70.0458 31.3742 70.0028 27.2781 69.8308C23.4714 69.6731 21.4157 69.0712 20.0453 68.5696C18.2333 67.9104 16.9237 67.1078 15.5685 65.8324C14.1981 64.5425 13.3606 63.3244 12.6602 61.619C12.1272 60.3291 11.4877 58.3801 11.3202 54.8116C11.1375 50.9421 11.0918 49.7813 11.0918 39.993C11.0918 30.1904 11.1375 29.0295 11.3202 25.1744C11.4877 21.5916 12.1272 19.6569 12.6602 18.367C13.3606 16.6616 14.2133 15.4291 15.5685 14.1536C16.939 12.8638 18.2333 12.0756 20.0453 11.4164C21.4157 10.9148 23.4866 10.3128 27.2781 10.1552C31.3742 9.98323 32.6076 9.94023 43.0229 9.94023ZM43.0229 3.3335C32.4401 3.3335 31.1153 3.37649 26.9584 3.54847C22.8166 3.72044 19.9692 4.35102 17.5024 5.25389C14.929 6.19976 12.7515 7.44658 10.5893 9.49596C8.41184 11.531 7.08709 13.5804 6.08211 15.988C5.12281 18.3241 4.45282 20.9897 4.27009 24.8878C4.08737 28.8146 4.04169 30.0614 4.04169 40.0217C4.04169 49.9819 4.08737 51.2287 4.27009 55.1412C4.45282 59.0393 5.12281 61.7193 6.08211 64.0409C7.08709 66.4629 8.41184 68.5123 10.5893 70.5474C12.7515 72.5824 14.929 73.8436 17.4871 74.7751C19.9692 75.678 22.8014 76.3085 26.9431 76.4805C31.1001 76.6525 32.4249 76.6955 43.0076 76.6955C53.5904 76.6955 54.9152 76.6525 59.0721 76.4805C63.2139 76.3085 66.0614 75.678 68.5281 74.7751C71.0863 73.8436 73.2637 72.5824 75.426 70.5474C77.5882 68.5123 78.9282 66.4629 79.9179 64.0553C80.8772 61.7193 81.5472 59.0536 81.73 55.1555C81.9127 51.2431 81.9584 49.9963 81.9584 40.036C81.9584 30.0757 81.9127 28.8289 81.73 24.9165C81.5472 21.0183 80.8772 18.3384 79.9179 16.0167C78.9586 13.5804 77.6339 11.531 75.4564 9.49596C73.2942 7.46091 71.1167 6.19976 68.5586 5.26822C66.0766 4.36535 63.2444 3.73477 59.1026 3.5628C54.9304 3.37649 53.6056 3.3335 43.0229 3.3335Z" fill="#CD486B"/>
<path d="M43.0229 21.176C31.968 21.176 22.9993 29.6171 22.9993 40.0217C22.9993 50.4262 31.968 58.8673 43.0229 58.8673C54.0777 58.8673 63.0464 50.4262 63.0464 40.0217C63.0464 29.6171 54.0777 21.176 43.0229 21.176ZM43.0229 52.2463C35.8509 52.2463 30.0342 46.7717 30.0342 40.0217C30.0342 33.2716 35.8509 27.797 43.0229 27.797C50.1948 27.797 56.0115 33.2716 56.0115 40.0217C56.0115 46.7717 50.1948 52.2463 43.0229 52.2463Z" fill="#CD486B"/>
<path d="M68.5129 20.4308C68.5129 22.8671 66.4116 24.8305 63.8382 24.8305C61.2496 24.8305 59.1635 22.8528 59.1635 20.4308C59.1635 17.9945 61.2648 16.0311 63.8382 16.0311C66.4116 16.0311 68.5129 18.0088 68.5129 20.4308Z" fill="#CD486B"/>
</g>
</g>
</svg>
