<svg width="72" height="76" viewBox="0 0 72 76" fill="none" xmlns="http://www.w3.org/2000/svg">
<g id="LinkedIn ">
<path id="Vector" d="M64.1279 3.1665H7.87208C6.57993 3.1665 5.34069 3.70833 4.427 4.67278C3.51331 5.63724 3 6.94532 3 8.30926V67.6904C3 69.0544 3.51331 70.3624 4.427 71.3269C5.34069 72.2914 6.57993 72.8332 7.87208 72.8332H64.1279C65.4201 72.8332 66.6593 72.2914 67.573 71.3269C68.4867 70.3624 69 69.0544 69 67.6904V8.30926C69 6.94532 68.4867 5.63724 67.573 4.67278C66.6593 3.70833 65.4201 3.1665 64.1279 3.1665ZM22.6717 62.5138H12.7488V29.2431H22.6717V62.5138ZM17.7033 24.6325C16.5778 24.6259 15.4793 24.2674 14.5465 23.6023C13.6138 22.9373 12.8886 21.9955 12.4624 20.8958C12.0363 19.7961 11.9283 18.5878 12.1521 17.4234C12.3759 16.259 12.9215 15.1906 13.7199 14.3532C14.5184 13.5157 15.534 12.9467 16.6385 12.718C17.7431 12.4892 18.8871 12.611 19.9261 13.0678C20.9652 13.5247 21.8527 14.2962 22.4768 15.2851C23.1008 16.2739 23.4334 17.4357 23.4325 18.6238C23.4431 19.4193 23.3019 20.2088 23.0173 20.9454C22.7327 21.6821 22.3104 22.3507 21.7758 22.9114C21.2412 23.4721 20.6051 23.9135 19.9054 24.2092C19.2057 24.5049 18.4568 24.6489 17.7033 24.6325ZM59.2467 62.5428H49.3283V44.3666C49.3283 39.0061 47.1696 37.3516 44.3829 37.3516C41.4404 37.3516 38.5529 39.6931 38.5529 44.5021V62.5428H28.63V29.2673H38.1725V33.8779H38.3008C39.2588 31.8314 42.6138 28.3336 47.7333 28.3336C53.27 28.3336 59.2513 31.8024 59.2513 41.9621L59.2467 62.5428Z" fill="#0A66C2"/>
</g>
</svg>
