<svg width="72" height="22" viewBox="0 0 72 22" fill="none" xmlns="http://www.w3.org/2000/svg">
<path d="M26.7924 5.44994H22.8272C22.5559 5.44994 22.3251 5.67832 22.2828 5.98866L20.6791 17.7686C20.6472 18.001 20.8026 18.2106 21.0061 18.2106H22.8991C23.1704 18.2106 23.4012 17.9822 23.4435 17.6712L23.876 14.4939C23.9178 14.1829 24.1491 13.9546 24.4199 13.9546H25.6751C28.287 13.9546 29.7945 12.4902 30.1881 9.58839C30.3656 8.31884 30.1957 7.32134 29.6826 6.62276C29.119 5.85566 28.1195 5.44994 26.7924 5.44994ZM27.2498 9.75229C27.033 11.4007 25.9459 11.4007 24.8947 11.4007H24.2964L24.7161 8.3222C24.7411 8.13614 24.8802 7.99911 25.0426 7.99911H25.3168C26.0328 7.99911 26.7083 7.99911 27.0573 8.472C27.2655 8.75412 27.3292 9.17327 27.2498 9.75229Z" fill="#253B80"/>
<path d="M38.645 9.69922H36.7462C36.5844 9.69922 36.4447 9.83625 36.4198 10.0223L36.3357 10.6376L36.2029 10.4146C35.7919 9.7234 34.8752 9.49233 33.9603 9.49233C31.8621 9.49233 30.07 11.3335 29.7209 13.9163C29.5395 15.2046 29.7975 16.4365 30.4283 17.2957C31.0069 18.0856 31.8348 18.4147 32.8199 18.4147C34.5105 18.4147 35.448 17.1553 35.448 17.1553L35.3634 17.7665C35.3315 18.0003 35.4869 18.2099 35.6892 18.2099H37.3996C37.6715 18.2099 37.9011 17.9815 37.944 17.6705L38.9702 10.1412C39.0027 9.90947 38.8479 9.69922 38.645 9.69922ZM35.9983 13.9807C35.815 15.2375 34.9541 16.0812 33.8559 16.0812C33.3046 16.0812 32.8639 15.8763 32.581 15.4881C32.3004 15.1025 32.1937 14.5537 32.283 13.9425C32.454 12.6964 33.3295 11.8252 34.4108 11.8252C34.95 11.8252 35.3883 12.0328 35.6771 12.4244C35.9664 12.82 36.0812 13.3722 35.9983 13.9807Z" fill="#253B80"/>
<path d="M48.7575 9.69919H46.8495C46.6674 9.69919 46.4964 9.80398 46.3932 9.97929L43.7615 14.4704L42.646 10.1546C42.5759 9.88458 42.3608 9.69919 42.1173 9.69919H40.2422C40.0144 9.69919 39.8561 9.95713 39.9286 10.2057L42.0303 17.3514L40.0544 20.583C39.899 20.8376 40.0556 21.1876 40.324 21.1876H42.2297C42.4106 21.1876 42.5799 21.0855 42.6826 20.9135L49.0289 10.3004C49.1808 10.0465 49.0248 9.69919 48.7575 9.69919Z" fill="#253B80"/>
<path d="M55.0748 5.44994H51.1091C50.8383 5.44994 50.6076 5.67832 50.5653 5.98866L48.9616 17.7686C48.9297 18.001 49.0851 18.2106 49.2874 18.2106H51.3225C51.5115 18.2106 51.6732 18.0507 51.7028 17.833L52.1579 14.4939C52.1997 14.1829 52.431 13.9546 52.7018 13.9546H53.9564C56.5689 13.9546 58.0758 12.4902 58.47 9.58839C58.648 8.31884 58.477 7.32134 57.9639 6.62276C57.4009 5.85566 56.4019 5.44994 55.0748 5.44994ZM55.5323 9.75229C55.316 11.4007 54.2289 11.4007 53.1772 11.4007H52.5794L52.9998 8.3222C53.0247 8.13614 53.1627 7.99911 53.3256 7.99911H53.5998C54.3153 7.99911 54.9913 7.99911 55.3404 8.472C55.5485 8.75412 55.6117 9.17327 55.5323 9.75229Z" fill="#253B80"/>
<path d="M66.9268 9.69922H65.0292C64.8662 9.69922 64.7277 9.83625 64.7033 10.0223L64.6193 10.6376L64.4859 10.4146C64.0748 9.7234 63.1588 9.49233 62.2439 9.49233C60.1456 9.49233 58.3541 11.3335 58.0051 13.9163C57.8242 15.2046 58.081 16.4365 58.7118 17.2957C59.2916 18.0856 60.1184 18.4147 61.1034 18.4147C62.7941 18.4147 63.7316 17.1553 63.7316 17.1553L63.647 17.7665C63.6151 18.0003 63.7705 18.2099 63.974 18.2099H65.6837C65.9545 18.2099 66.1853 17.9815 66.2276 17.6705L67.2544 10.1412C67.2857 9.90947 67.1303 9.69922 66.9268 9.69922ZM64.2801 13.9807C64.098 15.2375 63.2359 16.0812 62.1378 16.0812C61.5876 16.0812 61.1458 15.8763 60.8628 15.4881C60.5822 15.1025 60.4767 14.5537 60.5648 13.9425C60.737 12.6964 61.6113 11.8252 62.6926 11.8252C63.2318 11.8252 63.6702 12.0328 63.9589 12.4244C64.2494 12.82 64.3642 13.3722 64.2801 13.9807Z" fill="#253B80"/>
<path d="M69.1653 5.773L67.5378 17.7685C67.506 18.0009 67.6613 18.2105 67.8637 18.2105H69.4998C69.7718 18.2105 70.0025 17.9821 70.0442 17.6711L71.6491 5.89189C71.681 5.65948 71.5256 5.44923 71.3232 5.44923H69.4911C69.3294 5.4499 69.1902 5.58693 69.1653 5.773Z" fill="#253B80"/>
<path d="M4.21267 20.4998L4.5159 18.2683L3.84045 18.2502H0.615111L2.85656 1.78439C2.86351 1.73468 2.88612 1.68833 2.91917 1.65542C2.95222 1.62251 2.99454 1.60437 3.03861 1.60437H8.47698C10.2824 1.60437 11.5284 2.03964 12.1789 2.89877C12.4839 3.3018 12.6781 3.72297 12.772 4.18645C12.8706 4.67277 12.8723 5.25381 12.7761 5.96247L12.7691 6.01419V6.46827L13.0741 6.66845C13.3309 6.8263 13.535 7.00699 13.6916 7.21388C13.9525 7.55847 14.1212 7.99643 14.1925 8.51567C14.2661 9.04968 14.2418 9.68513 14.1212 10.4045C13.982 11.2321 13.7571 11.9528 13.4533 12.5426C13.1738 13.086 12.8178 13.5368 12.3952 13.886C11.9916 14.2179 11.5121 14.4698 10.97 14.631C10.4448 14.7895 9.84585 14.8694 9.18895 14.8694H8.76571C8.46307 14.8694 8.16912 14.9957 7.93836 15.2221C7.70703 15.4532 7.55396 15.7689 7.507 16.1141L7.47511 16.315L6.93939 20.2479L6.91504 20.3923C6.90866 20.438 6.89765 20.4608 6.88142 20.4763C6.86692 20.4904 6.84605 20.4998 6.82576 20.4998H4.21267Z" fill="#253B80"/>
<path d="M13.3629 6.06653C13.3466 6.18677 13.3281 6.30969 13.3072 6.43597C12.59 10.702 10.1364 12.1758 7.00264 12.1758H5.40707C5.02384 12.1758 4.7009 12.4982 4.64118 12.9362L3.82426 18.9386L3.59293 20.6401C3.55408 20.9276 3.74541 21.1869 3.99588 21.1869H6.8258C7.16092 21.1869 7.44559 20.9048 7.49835 20.5219L7.52618 20.3553L8.059 16.4378L8.09321 16.2229C8.14539 15.8387 8.43065 15.5565 8.76576 15.5565H9.189C11.9308 15.5565 14.0772 14.2669 14.7045 10.5348C14.9665 8.97574 14.8309 7.67395 14.1375 6.7584C13.9276 6.48232 13.6673 6.25327 13.3629 6.06653Z" fill="#179BD7"/>
<path d="M12.6126 5.71999C12.503 5.68304 12.3899 5.64946 12.274 5.61923C12.1574 5.58967 12.038 5.56348 11.9151 5.54064C11.4849 5.46003 11.0135 5.42174 10.5085 5.42174H6.24596C6.14102 5.42174 6.04129 5.44928 5.95201 5.49899C5.75546 5.60848 5.60936 5.8241 5.57399 6.08809L4.66721 12.7421L4.64118 12.9362C4.7009 12.4982 5.02384 12.1758 5.40707 12.1758H7.00264C10.1364 12.1758 12.59 10.7014 13.3072 6.43597C13.3287 6.30969 13.3466 6.18677 13.3629 6.06653C13.1814 5.95502 12.9848 5.8597 12.7732 5.77842C12.721 5.75827 12.6671 5.73879 12.6126 5.71999Z" fill="#222D65"/>
<path d="M5.57399 6.08809C5.60936 5.8241 5.75551 5.60845 5.95205 5.49963C6.04192 5.44992 6.14106 5.42238 6.246 5.42238H10.5086C11.0136 5.42238 11.4849 5.46067 11.9151 5.54128C12.038 5.56412 12.1575 5.59031 12.274 5.61987C12.39 5.65009 12.503 5.68368 12.6126 5.72062C12.6671 5.73943 12.721 5.75891 12.7738 5.77839C12.9854 5.85967 13.182 5.95573 13.3634 6.06656C13.5768 4.49004 13.3617 3.41664 12.6259 2.44466C11.8148 1.37462 10.3509 0.916504 8.47759 0.916504H3.03922C2.65656 0.916504 2.33014 1.23893 2.27101 1.67756L0.00579136 18.3126C-0.038852 18.6418 0.180306 18.9387 0.466719 18.9387L3.82426 18.9386L4.66721 12.7421L5.57399 6.08809Z" fill="#253B80"/>
</svg>
