<svg width="76" height="80" viewBox="0 0 76 80" fill="none" xmlns="http://www.w3.org/2000/svg">
<g id="Pinterest">
<g id="Vector">
<path d="M38 76.6668C57.2379 76.6668 72.8334 60.2506 72.8334 40.0002C72.8334 19.7497 57.2379 3.3335 38 3.3335C18.7621 3.3335 3.16669 19.7497 3.16669 40.0002C3.16669 60.2506 18.7621 76.6668 38 76.6668Z" fill="white"/>
<path d="M38 3.3335C18.7621 3.3335 3.16669 19.7497 3.16669 40.0002C3.16669 55.542 12.3409 68.8205 25.2995 74.162C24.9841 71.2649 24.7261 66.7985 25.4142 63.6298C26.0449 60.7629 29.4852 45.4021 29.4852 45.4021C29.4852 45.4021 28.4531 43.1991 28.4531 39.97C28.4531 34.8699 31.2627 31.0674 34.7604 31.0674C37.742 31.0674 39.1755 33.4213 39.1755 36.2279C39.1755 39.3664 37.2833 44.0742 36.2799 48.4501C35.4484 52.1017 38.0287 55.0893 41.4404 55.0893C47.6329 55.0893 52.3921 48.2087 52.3921 38.3102C52.3921 29.5283 46.4002 23.4021 37.828 23.4021C27.9084 23.4021 22.0885 31.2183 22.0885 39.3061C22.0885 42.4446 23.2353 45.8246 24.6687 47.6655C24.9554 48.0276 24.9841 48.3596 24.8981 48.7217C24.6401 49.8685 24.038 52.3733 23.9233 52.8863C23.78 53.5502 23.4073 53.7011 22.7479 53.3692C18.3901 51.2265 15.6666 44.5571 15.6666 39.1552C15.6666 27.5969 23.6366 16.9741 38.6881 16.9741C50.7579 16.9741 60.1615 26.0276 60.1615 38.1593C60.1615 50.804 52.5928 60.9741 42.0997 60.9741C38.5734 60.9741 35.2478 59.0427 34.1297 56.7491C34.1297 56.7491 32.3808 63.7505 31.9508 65.4707C31.1767 68.6696 29.0552 72.6531 27.6217 75.0976C30.89 76.1538 34.3303 76.7272 37.9427 76.7272C57.1799 76.7272 72.776 60.3102 72.776 40.0605C72.8334 19.7505 57.2372 3.3335 38 3.3335Z" fill="#E60019"/>
</g>
</g>
</svg>
