<svg width="80" height="76" viewBox="0 0 80 76" fill="none" xmlns="http://www.w3.org/2000/svg">
<g id="Snapchat">
<g id="Vector">
<path d="M71.0704 53.9788C59.8562 48.7548 58.0689 40.6892 57.9893 40.0909C57.8931 39.3663 57.7839 38.7965 58.6147 38.0594C59.4158 37.3472 62.9701 35.2302 63.9563 34.5679C65.5863 33.4711 66.3042 32.3761 65.7751 31.03C65.405 30.0988 64.504 29.7481 63.5548 29.7481C63.2554 29.749 62.957 29.7812 62.6648 29.8442C60.8738 30.2181 59.1346 31.0817 58.1281 31.3149C58.0071 31.3449 57.8829 31.3611 57.7581 31.363C57.2215 31.363 57.018 31.1333 57.0698 30.5119C57.1956 28.6281 57.462 24.9514 57.153 21.5169C56.7293 16.7914 55.1455 14.4501 53.2676 12.3794C52.3591 11.3752 48.1406 7.06104 39.9996 7.06104C31.8586 7.06104 27.6457 11.3752 26.7428 12.3669C24.8593 14.4376 23.2773 16.779 22.8573 21.5044C22.5483 24.939 22.8259 28.6139 22.9406 30.4994C22.9776 31.0906 22.7889 31.3505 22.2523 31.3505C22.1274 31.3485 22.0032 31.3323 21.8823 31.3024C20.8776 31.0692 19.1384 30.2057 17.3474 29.8318C17.0552 29.7687 16.7568 29.7365 16.4574 29.7356C15.5045 29.7356 14.6072 30.0917 14.2371 31.0176C13.708 32.3636 14.4222 33.4586 16.0578 34.5554C17.0439 35.2177 20.5982 37.333 21.3993 38.0469C22.2282 38.7841 22.1209 39.3538 22.0247 40.0785C21.9452 40.6856 20.156 48.7513 8.94365 53.9663C8.28682 54.2726 7.16929 54.9207 9.13977 55.9676C12.2333 57.6128 14.2926 57.4365 15.8931 58.4282C17.2511 59.2704 16.4482 61.0865 17.4362 61.7417C18.6499 62.5483 22.2375 61.6847 26.8723 63.1572C30.7578 64.3893 33.1186 67.8702 40.0089 67.8702C46.8991 67.8702 49.3284 64.3733 53.1454 63.1572C57.771 61.6847 61.366 62.5483 62.5816 61.7417C63.5677 61.0865 62.7666 59.2704 64.1247 58.4282C65.7251 57.4365 67.7826 57.6128 70.878 55.9676C72.8448 54.9331 71.7272 54.285 71.0704 53.9788Z" fill="white"/>
<path d="M75.9495 53.3657C75.4462 52.0481 74.4878 51.3431 73.3962 50.7591C73.1908 50.6433 73.0021 50.5507 72.8411 50.4795C72.5155 50.3175 72.1824 50.1608 71.8512 49.9952C68.4487 48.2592 65.7918 46.0692 63.9489 43.4733C63.4256 42.7425 62.9717 41.9678 62.5927 41.1586C62.4354 40.726 62.4429 40.4803 62.5557 40.2559C62.6677 40.0831 62.8157 39.9345 62.9905 39.8197C63.5752 39.4476 64.1784 39.0701 64.5873 38.8155C65.3162 38.3615 65.8935 38.0018 66.2654 37.7472C67.6623 36.8071 68.6392 35.8083 69.2498 34.6919C69.6758 33.9206 69.9242 33.0701 69.9782 32.1982C70.0322 31.3262 69.8904 30.4534 69.5625 29.6389C68.6374 27.2957 66.3376 25.8411 63.5511 25.8411C62.9634 25.8405 62.3773 25.9002 61.8027 26.0191C61.6491 26.0512 61.4955 26.085 61.3457 26.1224C61.3716 24.5199 61.3346 22.8285 61.1866 21.1637C60.6611 15.3112 58.5315 12.2435 56.3112 9.79706C54.8894 8.26404 53.2147 6.96707 51.3545 5.95832C47.9852 4.1066 44.1645 3.1665 39.9997 3.1665C35.8348 3.1665 32.0326 4.1066 28.6597 5.95832C26.7948 6.96737 25.1168 8.26695 23.6937 9.80418C21.4734 12.2506 19.3438 15.3237 18.8183 21.1708C18.6703 22.8356 18.6333 24.536 18.6574 26.1295C18.5075 26.0921 18.3558 26.0583 18.2022 26.0262C17.6276 25.9073 17.0415 25.8477 16.4537 25.8482C13.6655 25.8482 11.3619 27.3029 10.4405 29.646C10.1112 30.4608 9.96797 31.3343 10.0206 32.2072C10.0733 33.08 10.3206 33.9317 10.7458 34.7044C11.3582 35.8207 12.3351 36.8196 13.7321 37.7597C14.1021 38.009 14.6812 38.3686 15.4102 38.828C15.8043 39.0737 16.3797 39.4333 16.944 39.793C17.1415 39.9158 17.3093 40.0779 17.4362 40.2684C17.5546 40.5016 17.5583 40.7527 17.3826 41.2156C17.0087 42.0078 16.5623 42.7663 16.0485 43.4822C14.2464 46.0194 11.6672 48.1702 8.37382 49.892C6.62906 50.7822 4.81585 51.3769 4.04985 53.3799C3.47259 54.8916 3.85003 56.6115 5.31726 58.0609C5.85574 58.6018 6.4803 59.0568 7.16748 59.4087C8.59731 60.1649 10.1177 60.7502 11.695 61.1518C12.0205 61.2326 12.3295 61.3656 12.609 61.5453C13.1437 61.9957 13.0678 62.6741 13.7802 63.6676C14.1377 64.1811 14.5921 64.6256 15.1197 64.9781C16.6147 65.9716 18.2947 66.0339 20.0746 66.0998C21.6825 66.1585 23.5049 66.2262 25.5864 66.8868C26.4486 67.1609 27.3441 67.6915 28.3821 68.3112C30.8744 69.7854 34.2862 71.8027 39.996 71.8027C45.7057 71.8027 49.1416 69.7747 51.6524 68.2951C52.6829 67.6862 53.5729 67.1609 54.411 66.8939C56.4925 66.2315 58.315 66.1657 59.9228 66.1069C61.7028 66.041 63.3828 65.9787 64.8777 64.9852C65.5026 64.5659 66.0233 64.0186 66.4023 63.3827C66.9148 62.5441 66.9019 61.9583 67.3829 61.5488C67.6452 61.3777 67.9354 61.2501 68.2414 61.1714C69.8402 60.7685 71.3813 60.1777 72.83 59.4122C73.5601 59.0353 74.2173 58.5402 74.7727 57.9487L74.7912 57.9273C76.1678 56.51 76.5138 54.8399 75.9495 53.3657ZM70.8743 55.9901C67.7789 57.6353 65.7214 57.459 64.121 58.4508C62.7611 59.293 63.5659 61.1091 62.5779 61.7643C61.3642 62.5708 57.7766 61.7073 53.1418 63.1798C49.3192 64.3958 46.8806 67.8927 40.0052 67.8927C33.1298 67.8927 30.7486 64.403 26.8631 63.1709C22.2375 61.6984 18.6426 62.5619 17.427 61.7554C16.4408 61.1002 17.2419 59.284 15.8839 58.4419C14.2816 57.4501 12.2241 57.6264 9.13056 55.9901C7.16008 54.9432 8.27761 54.2951 8.93444 53.9889C20.1468 48.7649 21.9359 40.6993 22.0155 40.101C22.1117 39.3764 22.219 38.8066 21.3901 38.0695C20.589 37.3573 17.0347 35.2403 16.0485 34.5779C14.4166 33.4812 13.6988 32.3862 14.2279 31.0401C14.598 30.1089 15.5009 29.7582 16.4482 29.7582C16.7476 29.759 17.046 29.7913 17.3381 29.8543C19.1292 30.2282 20.8684 31.0917 21.873 31.325C21.994 31.3549 22.1182 31.371 22.2431 31.3731C22.7796 31.3731 22.9684 31.1131 22.9314 30.522C22.8167 28.6364 22.5391 24.9615 22.8481 21.5269C23.2718 16.8015 24.8537 14.4602 26.7336 12.3895C27.6365 11.3942 31.879 7.08003 39.9923 7.08003C48.1055 7.08003 52.3591 11.3764 53.262 12.3681C55.1437 14.4388 56.7275 16.7801 57.1475 21.5056C57.4565 24.9401 57.1901 28.6169 57.0643 30.5006C57.0217 31.122 57.216 31.3517 57.7525 31.3517C57.8774 31.3498 58.0016 31.3336 58.1226 31.3036C59.1291 31.0704 60.8683 30.2068 62.6593 29.8329C62.9515 29.7699 63.2499 29.7377 63.5493 29.7368C64.5021 29.7368 65.3995 30.0929 65.7695 31.0187C66.2987 32.3648 65.5845 33.4598 63.9508 34.5566C62.9646 35.2189 59.4103 37.3341 58.6092 38.0481C57.7784 38.7853 57.8876 39.355 57.9838 40.0797C58.0634 40.6868 59.8507 48.7524 71.0649 53.9675C71.7273 54.2862 72.8448 54.9343 70.8743 55.9901Z" fill="#191D1F"/>
</g>
</g>
</svg>
