<svg width="54" height="76" viewBox="0 0 54 76" fill="none" xmlns="http://www.w3.org/2000/svg">
<g id="TikTok">
<g id="Vector">
<path d="M36.7652 29.679C39.7202 32.6626 43.3402 34.418 47.25 34.418V23.7915C46.5101 23.7917 45.772 23.6827 45.0481 23.4661V31.8307C41.1387 31.8307 37.5191 30.0752 34.5633 27.092V48.7775C34.5633 59.6258 28.337 68.4193 20.6569 68.4193C17.7913 68.4193 15.1278 67.1957 12.9153 65.0971C15.4405 68.7441 18.9622 71.0064 22.8583 71.0064C30.5389 71.0064 36.7655 62.2129 36.7655 51.3642L36.7652 29.679ZM39.4815 18.9582C37.9713 16.6279 36.9798 13.6165 36.7652 10.2871V8.92035H34.6786C35.2038 13.1519 36.9953 16.7671 39.4815 18.9582ZM17.7729 56.7725C16.9292 55.21 16.4732 53.2985 16.4753 51.3331C16.4753 46.3715 19.3231 42.3486 22.8367 42.3486C23.4915 42.3484 24.1423 42.49 24.7663 42.7697V31.9057C24.0371 31.7645 23.3011 31.7046 22.5654 31.7266V40.1826C21.9409 39.9029 21.2897 39.7609 20.6348 39.7618C17.1213 39.7618 14.2736 43.7842 14.2736 48.7465C14.2736 52.2551 15.697 55.2928 17.7729 56.7725Z" fill="#FF004F"/>
<path d="M34.5633 27.092C37.5191 30.0752 41.1387 31.8307 45.0481 31.8307V23.4661C42.8659 22.8096 40.934 21.1986 39.4815 18.9582C36.9953 16.7671 35.2038 13.1519 34.6786 8.92035H29.1976V51.3637C29.1852 56.3118 26.3422 60.3183 22.8363 60.3183C20.7702 60.3183 18.9354 58.9273 17.7729 56.7725C15.697 55.2928 14.2736 52.2551 14.2736 48.7465C14.2736 43.7842 17.1213 39.7618 20.6348 39.7618C21.308 39.7618 21.9568 39.9098 22.5654 40.1826V31.7266C15.0202 31.9468 8.95167 40.6547 8.95167 51.364C8.95167 56.7099 10.4627 61.5561 12.9153 65.0971C15.1278 67.1957 17.7913 68.4193 20.6569 68.4193C28.337 68.4193 34.5633 59.6258 34.5633 48.7775V27.092Z" fill="#111928"/>
<path d="M45.0481 23.4661L45.0481 21.2042C43.0802 21.2084 41.1511 20.4302 39.4815 18.9582C40.9594 21.2437 42.9056 22.8196 45.0481 23.4661ZM34.6786 8.92035C34.6285 8.51595 34.59 8.10891 34.5633 7.70029V6.3335H26.9957V48.7773C26.9836 53.7247 24.1407 57.7312 20.6344 57.7312C19.605 57.7312 18.6336 57.3858 17.7729 56.7725C18.9354 58.9273 20.7702 60.3183 22.8363 60.3183C26.3422 60.3183 29.1852 56.3118 29.1976 51.3637V8.92035H34.6786ZM22.5654 31.7266L22.5654 29.3191C21.933 29.197 21.2955 29.1357 20.6572 29.1362C12.9763 29.1359 6.75 37.93 6.75 48.7773C6.75 55.578 9.19679 61.5716 12.9153 65.0971C10.4627 61.5561 8.95167 56.7099 8.95167 51.364C8.95167 40.6547 15.0202 31.9468 22.5654 31.7266Z" fill="#00F2EA"/>
</g>
</g>
</svg>
