<svg width="56" height="72" viewBox="0 0 56 72" fill="none" xmlns="http://www.w3.org/2000/svg">
<g id="twitch">
<path id="bg" d="M56 36C56 16.1178 43.464 0 28 0C12.536 0 0 16.1178 0 36C0 55.8822 12.536 72 28 72C43.464 72 56 55.8822 56 36Z" fill="#9146FF"/>
<g id="twitch_2">
<path d="M21.0037 21.2134L16.0037 27.6419V50.7848H22.0037V57.2134L27.0037 50.7848H31.0037L40.0037 39.2134V21.2134H21.0037ZM38.0037 37.9277L34.0037 43.0705H30.0037L26.5037 47.5705V43.0705H22.0037V23.7848H38.0037V37.9277Z" fill="white"/>
<path d="M35.0037 28.2848H33.0037V35.9991H35.0037V28.2848Z" fill="white"/>
<path d="M29.5037 28.2848H27.5037V35.9991H29.5037V28.2848Z" fill="white"/>
</g>
</g>
</svg>
