<svg width="72" height="80" viewBox="0 0 72 80" fill="none" xmlns="http://www.w3.org/2000/svg">
<g id="YouTube">
<g id="Vector">
<path d="M67.1808 23.0667C66.8129 21.5065 66.0877 20.0827 65.0779 18.9376C64.0681 17.7924 62.8091 16.9663 61.4269 16.5417C56.3385 15 36 15 36 15C36 15 15.6614 15 10.5731 16.5417C9.19088 16.9663 7.93187 17.7924 6.92207 18.9376C5.91227 20.0827 5.1871 21.5065 4.81915 23.0667C3.45831 28.825 3.45831 40.8333 3.45831 40.8333C3.45831 40.8333 3.45831 52.8417 4.81915 58.6C5.1871 60.1601 5.91227 61.584 6.92207 62.7291C7.93187 63.8742 9.19088 64.7004 10.5731 65.125C15.6614 66.6667 36 66.6667 36 66.6667C36 66.6667 56.3385 66.6667 61.4269 65.125C62.8091 64.7004 64.0681 63.8742 65.0779 62.7291C66.0877 61.584 66.8129 60.1601 67.1808 58.6C68.5416 52.8417 68.5416 40.8333 68.5416 40.8333C68.5416 40.8333 68.5416 28.825 67.1808 23.0667Z" fill="#FF0302"/>
<path d="M29.3438 51.7376V29.9293L46.3542 40.8334L29.3438 51.7376Z" fill="#FEFEFE"/>
</g>
</g>
</svg>
