<svg width="33" height="32" viewBox="0 0 33 32" fill="none" xmlns="http://www.w3.org/2000/svg">
<path d="M0.666748 16C0.666748 24.8366 7.83019 32 16.6667 32C25.5033 32 32.6667 24.8366 32.6667 16C32.6667 7.16344 25.5033 0 16.6667 0C7.83019 0 0.666748 7.16344 0.666748 16Z" fill="#F00073"/>
<path d="M16.6667 9.19922C18.8667 9.19922 19.1667 9.19922 20.0667 9.19922C20.8667 9.19922 21.2667 9.39922 21.5667 9.49922C21.9667 9.69922 22.2667 9.79922 22.5667 10.0992C22.8667 10.3992 23.0667 10.6992 23.1667 11.0992C23.2667 11.3992 23.3667 11.7992 23.4667 12.5992C23.4667 13.4992 23.4667 13.6992 23.4667 15.9992C23.4667 18.2992 23.4667 18.4992 23.4667 19.3992C23.4667 20.1992 23.2667 20.5992 23.1667 20.8992C22.9667 21.2992 22.8667 21.5992 22.5667 21.8992C22.2667 22.1992 21.9667 22.3992 21.5667 22.4992C21.2667 22.5992 20.8667 22.6992 20.0667 22.7992C19.1667 22.7992 18.9667 22.7992 16.6667 22.7992C14.3667 22.7992 14.1667 22.7992 13.2667 22.7992C12.4667 22.7992 12.0667 22.5992 11.7667 22.4992C11.3667 22.2992 11.0667 22.1992 10.7667 21.8992C10.4667 21.5992 10.2667 21.2992 10.1667 20.8992C10.0667 20.5992 9.9667 20.1992 9.8667 19.3992C9.8667 18.4992 9.8667 18.2992 9.8667 15.9992C9.8667 13.6992 9.8667 13.4992 9.8667 12.5992C9.8667 11.7992 10.0667 11.3992 10.1667 11.0992C10.3667 10.6992 10.4667 10.3992 10.7667 10.0992C11.0667 9.79922 11.3667 9.59922 11.7667 9.49922C12.0667 9.39922 12.4667 9.29922 13.2667 9.19922C14.1667 9.19922 14.4667 9.19922 16.6667 9.19922ZM16.6667 7.69922C14.3667 7.69922 14.1667 7.69922 13.2667 7.69922C12.3667 7.69922 11.7667 7.89922 11.2667 8.09922C10.7667 8.29922 10.2667 8.59922 9.7667 9.09922C9.2667 9.59922 9.0667 9.99922 8.7667 10.5992C8.5667 11.0992 8.4667 11.6992 8.3667 12.5992C8.3667 13.4992 8.3667 13.7992 8.3667 15.9992C8.3667 18.2992 8.3667 18.4992 8.3667 19.3992C8.3667 20.2992 8.5667 20.8992 8.7667 21.3992C8.9667 21.8992 9.2667 22.3992 9.7667 22.8992C10.2667 23.3992 10.6667 23.5992 11.2667 23.8992C11.7667 24.0992 12.3667 24.1992 13.2667 24.2992C14.1667 24.2992 14.4667 24.2992 16.6667 24.2992C18.8667 24.2992 19.1667 24.2992 20.0667 24.2992C20.9667 24.2992 21.5667 24.0992 22.0667 23.8992C22.5667 23.6992 23.0667 23.3992 23.5667 22.8992C24.0667 22.3992 24.2667 21.9992 24.5667 21.3992C24.7667 20.8992 24.8667 20.2992 24.9667 19.3992C24.9667 18.4992 24.9667 18.1992 24.9667 15.9992C24.9667 13.7992 24.9667 13.4992 24.9667 12.5992C24.9667 11.6992 24.7667 11.0992 24.5667 10.5992C24.3667 10.0992 24.0667 9.59922 23.5667 9.09922C23.0667 8.59922 22.6667 8.39922 22.0667 8.09922C21.5667 7.89922 20.9667 7.79922 20.0667 7.69922C19.1667 7.69922 18.9667 7.69922 16.6667 7.69922Z" fill="white"/>
<path d="M16.6667 11.6992C14.2667 11.6992 12.3667 13.5992 12.3667 15.9992C12.3667 18.3992 14.2667 20.2992 16.6667 20.2992C19.0667 20.2992 20.9667 18.3992 20.9667 15.9992C20.9667 13.5992 19.0667 11.6992 16.6667 11.6992ZM16.6667 18.7992C15.1667 18.7992 13.8667 17.5992 13.8667 15.9992C13.8667 14.4992 15.0667 13.1992 16.6667 13.1992C18.1667 13.1992 19.4667 14.3992 19.4667 15.9992C19.4667 17.4992 18.1667 18.7992 16.6667 18.7992Z" fill="white"/>
<path d="M21.0667 12.5992C21.619 12.5992 22.0667 12.1515 22.0667 11.5992C22.0667 11.0469 21.619 10.5992 21.0667 10.5992C20.5144 10.5992 20.0667 11.0469 20.0667 11.5992C20.0667 12.1515 20.5144 12.5992 21.0667 12.5992Z" fill="white"/>
</svg>
