<svg width="33" height="32" viewBox="0 0 33 32" fill="none" xmlns="http://www.w3.org/2000/svg">
<rect width="32" height="32" transform="translate(0.333252)" fill="white"/>
<path d="M0.333252 16C0.333252 24.8366 7.4967 32 16.3333 32C25.1698 32 32.3333 24.8366 32.3333 16C32.3333 7.16344 25.1698 0 16.3333 0C7.4967 0 0.333252 7.16344 0.333252 16Z" fill="#2867B2"/>
<path d="M11.9333 24H8.53325V13.3H11.9333V24ZM10.2333 11.8C9.13325 11.8 8.33325 11 8.33325 9.9C8.33325 8.8 9.23325 8 10.2333 8C11.3333 8 12.1333 8.8 12.1333 9.9C12.1333 11 11.3333 11.8 10.2333 11.8ZM24.3333 24H20.9333V18.2C20.9333 16.5 20.2332 16 19.2332 16C18.2332 16 17.2332 16.8 17.2332 18.3V24H13.8333V13.3H17.0332V14.8C17.3332 14.1 18.5332 13 20.2332 13C22.1332 13 24.1333 14.1 24.1333 17.4V24H24.3333Z" fill="white"/>
</svg>
