<svg width="33" height="32" viewBox="0 0 33 32" fill="none" xmlns="http://www.w3.org/2000/svg">
<rect x="0.666748" width="32" height="32" rx="16" fill="#FFFC00"/>
<path d="M25.0112 21.1111C21.8869 19.5987 21.3889 17.2635 21.3667 17.0903C21.3399 16.8805 21.3095 16.7156 21.541 16.5022C21.7642 16.296 22.7544 15.6831 23.0292 15.4913C23.4833 15.1738 23.6833 14.8567 23.5359 14.467C23.4328 14.1974 23.1818 14.0959 22.9173 14.0959C22.8339 14.0961 22.7508 14.1055 22.6694 14.1237C22.1704 14.232 21.6858 14.482 21.4054 14.5495C21.3717 14.5582 21.3371 14.5629 21.3023 14.5634C21.1528 14.5634 21.0961 14.4969 21.1106 14.317C21.1456 13.7716 21.2198 12.7072 21.1337 11.7128C21.0157 10.3447 20.5744 9.66684 20.0512 9.06734C19.7981 8.7766 18.6228 7.52759 16.3547 7.52759C14.0866 7.52759 12.9128 8.7766 12.6613 9.06373C12.1365 9.66324 11.6958 10.3411 11.5787 11.7092C11.4927 12.7036 11.57 13.7675 11.6019 14.3134C11.6123 14.4846 11.5597 14.5598 11.4102 14.5598C11.3754 14.5592 11.3408 14.5545 11.3071 14.5459C11.0272 14.4784 10.5426 14.2284 10.0436 14.1201C9.96224 14.1019 9.8791 14.0925 9.79569 14.0923C9.53021 14.0923 9.28021 14.1954 9.17711 14.4634C9.02968 14.8531 9.22866 15.1701 9.68434 15.4877C9.9591 15.6794 10.9493 16.2918 11.1725 16.4985C11.4035 16.712 11.3736 16.8769 11.3468 17.0867C11.3246 17.2625 10.8261 19.5976 7.70231 21.1075C7.51931 21.1961 7.20796 21.3838 7.75695 21.6869C8.61884 22.1632 9.19257 22.1122 9.63847 22.3993C10.0168 22.6431 9.79311 23.1689 10.0684 23.3586C10.4065 23.5921 11.4061 23.3421 12.6973 23.7684C13.7799 24.1251 14.4376 25.1329 16.3573 25.1329C18.2769 25.1329 18.9538 24.1205 20.0172 23.7684C21.3059 23.3421 22.3075 23.5921 22.6462 23.3586C22.9209 23.1689 22.6977 22.6431 23.0761 22.3993C23.522 22.1122 24.0952 22.1632 24.9576 21.6869C25.5056 21.3874 25.1942 21.1998 25.0112 21.1111Z" fill="white"/>
<path d="M26.3704 20.9334C26.2302 20.552 25.9632 20.3478 25.6591 20.1788C25.6019 20.1453 25.5493 20.1185 25.5044 20.0978C25.4137 20.0509 25.3209 20.0056 25.2286 19.9576C24.2807 19.455 23.5404 18.821 23.027 18.0694C22.8812 17.8578 22.7548 17.6335 22.6492 17.3993C22.6054 17.274 22.6074 17.2029 22.6389 17.1379C22.67 17.0879 22.7113 17.0449 22.76 17.0116C22.9229 16.9039 23.0909 16.7946 23.2049 16.7209C23.408 16.5895 23.5688 16.4853 23.6724 16.4116C24.0616 16.1394 24.3338 15.8503 24.5039 15.527C24.6226 15.3037 24.6918 15.0575 24.7068 14.8051C24.7218 14.5526 24.6823 14.2999 24.591 14.0641C24.3332 13.3857 23.6925 12.9646 22.9162 12.9646C22.7524 12.9644 22.5891 12.9817 22.4291 13.0161C22.3863 13.0254 22.3435 13.0352 22.3017 13.046C22.3089 12.5821 22.2986 12.0924 22.2574 11.6104C22.111 9.91601 21.5177 9.02783 20.8991 8.31956C20.503 7.87573 20.0364 7.50023 19.5181 7.20818C18.5794 6.67208 17.515 6.3999 16.3546 6.3999C15.1943 6.3999 14.1349 6.67208 13.1952 7.20818C12.6757 7.50032 12.2081 7.87657 11.8117 8.32162C11.1931 9.0299 10.5998 9.91962 10.4534 11.6125C10.4121 12.0944 10.4018 12.5867 10.4085 13.0481C10.3668 13.0373 10.3245 13.0275 10.2817 13.0182C10.1216 12.9838 9.95832 12.9665 9.79457 12.9666C9.01774 12.9666 8.37596 13.3878 8.11925 14.0662C8.02749 14.3021 7.98759 14.555 8.00227 14.8077C8.01695 15.0604 8.08585 15.307 8.20431 15.5307C8.37493 15.8539 8.6471 16.143 9.03629 16.4152C9.13939 16.4874 9.30074 16.5915 9.50384 16.7245C9.61364 16.7956 9.77395 16.8998 9.93117 17.0039C9.98618 17.0395 10.0329 17.0864 10.0683 17.1415C10.1013 17.2091 10.1023 17.2817 10.0533 17.4158C9.94918 17.6451 9.8248 17.8647 9.68168 18.072C9.1796 18.8065 8.46102 19.4292 7.54346 19.9277C7.05736 20.1855 6.55218 20.3576 6.33877 20.9376C6.17794 21.3752 6.2831 21.8732 6.69188 22.2928C6.8419 22.4494 7.01591 22.5811 7.20736 22.683C7.60572 22.9019 8.02932 23.0714 8.46875 23.1876C8.55943 23.211 8.64552 23.2495 8.7234 23.3016C8.87237 23.432 8.85124 23.6284 9.0497 23.916C9.14932 24.0647 9.27591 24.1934 9.42291 24.2954C9.83942 24.583 10.3075 24.6011 10.8034 24.6202C11.2513 24.6372 11.7591 24.6568 12.339 24.848C12.5792 24.9274 12.8287 25.081 13.1179 25.2604C13.8122 25.6872 14.7628 26.2713 16.3536 26.2713C17.9444 26.2713 18.9016 25.6841 19.6011 25.2558C19.8882 25.0795 20.1362 24.9274 20.3697 24.8501C20.9496 24.6583 21.4574 24.6392 21.9053 24.6222C22.4012 24.6032 22.8693 24.5851 23.2858 24.2975C23.4599 24.1761 23.6049 24.0176 23.7105 23.8335C23.8533 23.5907 23.8497 23.4212 23.9838 23.3026C24.0568 23.2531 24.1377 23.2161 24.2229 23.1933C24.6684 23.0767 25.0977 22.9056 25.5013 22.684C25.7047 22.5749 25.8878 22.4316 26.0426 22.2603L26.0477 22.2541C26.4313 21.8438 26.5277 21.3602 26.3704 20.9334ZM24.9565 21.6933C24.0941 22.1696 23.5208 22.1185 23.075 22.4056C22.6961 22.6495 22.9203 23.1753 22.645 23.365C22.3069 23.5985 21.3074 23.3485 20.0161 23.7748C18.9511 24.1268 18.2717 25.1393 16.3562 25.1393C14.4406 25.1393 13.7772 24.1289 12.6947 23.7722C11.406 23.3459 10.4044 23.5959 10.0657 23.3624C9.79096 23.1727 10.0142 22.6469 9.6358 22.4031C9.18939 22.1159 8.61618 22.167 7.75429 21.6933C7.2053 21.3901 7.51665 21.2025 7.69965 21.1138C10.8235 19.6014 11.3219 17.2663 11.3441 17.0931C11.3709 16.8833 11.4008 16.7183 11.1699 16.5049C10.9467 16.2987 9.95643 15.6858 9.68168 15.4941C9.22702 15.1765 9.02702 14.8595 9.17444 14.4698C9.27754 14.2002 9.5291 14.0986 9.79302 14.0986C9.87644 14.0989 9.95958 14.1082 10.041 14.1265C10.54 14.2347 11.0245 14.4847 11.3044 14.5523C11.3381 14.5609 11.3727 14.5656 11.4075 14.5662C11.557 14.5662 11.6096 14.4909 11.5993 14.3198C11.5673 13.7739 11.49 12.7099 11.5761 11.7156C11.6941 10.3475 12.1349 9.66961 12.6586 9.0701C12.9101 8.78195 14.0922 7.53293 16.3525 7.53293C18.6129 7.53293 19.798 8.77679 20.0496 9.06392C20.5738 9.66343 21.0151 10.3413 21.1321 11.7094C21.2182 12.7037 21.144 13.7682 21.1089 14.3136C21.097 14.4935 21.1512 14.56 21.3007 14.56C21.3355 14.5594 21.3701 14.5548 21.4038 14.5461C21.6842 14.4786 22.1687 14.2285 22.6677 14.1203C22.7491 14.102 22.8323 14.0927 22.9157 14.0925C23.1811 14.0925 23.4312 14.1956 23.5343 14.4636C23.6817 14.8533 23.4827 15.1703 23.0275 15.4879C22.7528 15.6796 21.7625 16.292 21.5393 16.4987C21.3079 16.7121 21.3383 16.8771 21.3651 17.0869C21.3873 17.2627 21.8852 19.5978 25.0096 21.1077C25.1941 21.1999 25.5055 21.3876 24.9565 21.6933Z" fill="#191D1F"/>
</svg>
