<svg width="33" height="32" viewBox="0 0 33 32" fill="none" xmlns="http://www.w3.org/2000/svg">
<path d="M0.333496 16C0.333496 7.16344 7.49694 0 16.3335 0C25.1701 0 32.3335 7.16344 32.3335 16C32.3335 24.8366 25.1701 32 16.3335 32C7.49694 32 0.333496 24.8366 0.333496 16Z" fill="#191D1F"/>
<path d="M14.8319 14.3003V13.6774C14.6185 13.6489 14.4015 13.6311 14.1775 13.6311C11.5065 13.6276 9.3335 15.8024 9.3335 18.4792C9.3335 20.1201 10.1515 21.5724 11.4034 22.4516C10.5961 21.5867 10.1017 20.4227 10.1017 19.1484C10.1017 16.5108 12.2143 14.3608 14.8319 14.3003Z" fill="#25F4EE"/>
<path d="M14.9492 21.3624C16.1407 21.3624 17.1151 20.412 17.1578 19.2303L17.1614 8.66919H19.089C19.0499 8.45206 19.0285 8.22781 19.0285 8H16.3967L16.3932 18.5611C16.3505 19.7428 15.376 20.6932 14.1846 20.6932C13.8147 20.6932 13.4662 20.6007 13.1567 20.4369C13.5551 20.9958 14.2095 21.3624 14.9492 21.3624Z" fill="#25F4EE"/>
<path d="M22.6917 12.2535V11.6662C21.9556 11.6662 21.2727 11.4491 20.6965 11.0718C21.2087 11.6591 21.9022 12.0863 22.6917 12.2535Z" fill="#25F4EE"/>
<path d="M20.6967 11.0721C20.1348 10.4278 19.7969 9.58779 19.7969 8.66943H19.0928C19.2741 9.67322 19.8716 10.5346 20.6967 11.0721Z" fill="#FE2C55"/>
<path d="M14.1811 16.2617C12.9613 16.2617 11.969 17.2549 11.969 18.4758C11.969 19.3265 12.4527 20.0669 13.1569 20.4371C12.8937 20.074 12.7372 19.6291 12.7372 19.1449C12.7372 17.924 13.7295 16.9309 14.9494 16.9309C15.177 16.9309 15.3975 16.9701 15.6037 17.0342V14.3432C15.3903 14.3147 15.1734 14.2969 14.9494 14.2969C14.9102 14.2969 14.8747 14.3004 14.8355 14.3004V16.365C14.6257 16.3009 14.4088 16.2617 14.1811 16.2617Z" fill="#FE2C55"/>
<path d="M22.6917 12.2537V14.3004C21.326 14.3004 20.0599 13.8626 19.0285 13.1222V18.4793C19.0285 21.1524 16.8555 23.3309 14.181 23.3309C13.1496 23.3309 12.1893 23.0034 11.4033 22.4517C12.2889 23.402 13.5515 24.0001 14.9492 24.0001C17.6201 24.0001 19.7967 21.8252 19.7967 19.1484V13.7914C20.8281 14.5318 22.0942 14.9696 23.4599 14.9696V12.3356C23.1931 12.3356 22.9371 12.3071 22.6917 12.2537Z" fill="#FE2C55"/>
<path d="M19.0284 18.4794V13.1224C20.0598 13.8628 21.3259 14.3005 22.6916 14.3005V12.2538C21.9021 12.0866 21.2086 11.6594 20.6964 11.0721C19.8713 10.5346 19.2774 9.67322 19.0888 8.66943H17.1612L17.1577 19.2305C17.115 20.4122 16.1405 21.3626 14.9491 21.3626C14.2093 21.3626 13.5585 20.996 13.1531 20.4407C12.4489 20.067 11.9652 19.3302 11.9652 18.4794C11.9652 17.2585 12.9574 16.2654 14.1773 16.2654C14.4049 16.2654 14.6254 16.3046 14.8317 16.3686V14.3041C12.2141 14.3611 10.1016 16.511 10.1016 19.1486C10.1016 20.4229 10.5959 21.5833 11.4032 22.4519C12.1892 23.0036 13.1495 23.3311 14.1809 23.3311C16.8518 23.3311 19.0284 21.1526 19.0284 18.4794Z" fill="white"/>
</svg>
