<svg width="32" height="32" viewBox="0 0 32 32" fill="none" xmlns="http://www.w3.org/2000/svg">
<path d="M32 16C32 7.16344 24.8366 0 16 0C7.16344 0 0 7.16344 0 16C0 24.8366 7.16344 32 16 32C24.8366 32 32 24.8366 32 16Z" fill="#9146FF"/>
<path d="M12.0022 9.42822L9.14502 12.2854V22.5711H12.5736V25.4282L15.4307 22.5711H17.7164L22.8593 17.4282V9.42822H12.0022ZM21.7164 16.8568L19.4307 19.1425H17.145L15.145 21.1425V19.1425H12.5736V10.5711H21.7164V16.8568Z" fill="white"/>
<path d="M20.0022 12.5711H18.8593V15.9997H20.0022V12.5711Z" fill="white"/>
<path d="M16.8593 12.5711H15.7164V15.9997H16.8593V12.5711Z" fill="white"/>
</svg>
