<svg width="32" height="32" viewBox="0 0 32 32" fill="none" xmlns="http://www.w3.org/2000/svg">
<path d="M0 16C0 24.8366 7.16344 32 16 32C24.8366 32 32 24.8366 32 16C32 7.16344 24.8366 0 16 0C7.16344 0 0 7.16344 0 16Z" fill="#191D1F"/>
<g clip-path="url(#clip0_256_167850)">
<path d="M21.6212 8.09497H24.5175L18.19 14.9528L25.6339 24.2848H19.8045L15.2394 18.625L10.0159 24.2848H7.11783L13.8858 16.9496L6.74573 8.09497H12.7213L16.8478 13.2682L21.6195 8.09497H21.6212ZM20.6047 22.6409H22.2096L11.8502 9.65252H10.128L20.6047 22.6409Z" fill="white"/>
</g>
<defs>
<clipPath id="clip0_256_167850">
<rect width="18.8881" height="16.1898" fill="white" transform="translate(6.74573 8.09497)"/>
</clipPath>
</defs>
</svg>
