<svg width="33" height="32" viewBox="0 0 33 32" fill="none" xmlns="http://www.w3.org/2000/svg">
<path d="M0.333252 16C0.333252 24.8366 7.4967 32 16.3333 32C25.1698 32 32.3333 24.8366 32.3333 16C32.3333 7.16344 25.1698 0 16.3333 0C7.4967 0 0.333252 7.16344 0.333252 16Z" fill="#FF0000"/>
<path d="M23.9333 12.0984C23.7333 11.3984 23.2333 10.8984 22.5333 10.6984C21.3333 10.3984 16.2332 10.3984 16.2332 10.3984C16.2332 10.3984 11.2333 10.3984 9.93326 10.6984C9.23326 10.8984 8.73325 11.3984 8.53325 12.0984C8.33325 13.3984 8.33325 15.9984 8.33325 15.9984C8.33325 15.9984 8.33325 18.5984 8.63326 19.8984C8.83325 20.5984 9.33325 21.0984 10.0332 21.2984C11.2332 21.5984 16.3333 21.5984 16.3333 21.5984C16.3333 21.5984 21.3332 21.5984 22.6332 21.2984C23.3332 21.0984 23.8333 20.5984 24.0333 19.8984C24.3333 18.5984 24.3333 15.9984 24.3333 15.9984C24.3333 15.9984 24.3333 13.3984 23.9333 12.0984ZM14.7332 18.3984V13.5984L18.9333 15.9984L14.7332 18.3984Z" fill="white"/>
</svg>
